<svg width="167" height="159" viewBox="0 0 167 159" fill="none" xmlns="http://www.w3.org/2000/svg">
<path d="M163 79.5C163 121.015 127.594 155 83.5 155C39.4061 155 4 121.015 4 79.5C4 37.9853 39.4061 4 83.5 4C127.594 4 163 37.9853 163 79.5Z" fill="white" stroke="black" stroke-width="8"/>
<path d="M145 78.1092C145 96.9994 132.281 110 119.033 110C106.091 110 95 97.3721 95 78.1092C95 68.6101 97.7899 60.199 102.218 54.2598C106.625 48.3469 112.529 45 119.033 45C132.124 45 145 59.0322 145 78.1092Z" fill="white" stroke="white" stroke-width="8"/>
<path d="M70 77.5675C70 95.2863 58.7711 107 47.65 107C36.8194 107 27 95.6626 27 77.5675C27 68.7198 29.455 60.9118 33.315 55.4266C37.1617 49.9604 42.2139 47 47.65 47C53.1553 47 58.668 50.0328 62.9394 55.5683C67.1967 61.0854 70 68.8566 70 77.5675Z" fill="white" stroke="white" stroke-width="8"/>
<path d="M66.2885 60.2487C67.4707 60.236 68.0618 60.2296 68.6703 59.9322C69.4147 59.5684 70.1908 58.5163 70.3185 57.6977C70.4229 57.0287 70.3037 56.6277 70.065 55.8257C69.7813 54.8718 69.4077 53.9362 68.9465 53.0278C67.7951 50.76 66.1203 48.7062 64.0177 46.9836C61.9152 45.2611 59.426 43.9035 56.6924 42.9884C53.9588 42.0734 51.0342 41.6188 48.0857 41.6505C45.1372 41.6823 42.2224 42.1998 39.5079 43.1735C36.7933 44.1473 34.3321 45.5581 32.2648 47.3256C30.1976 49.0931 28.5646 51.1825 27.4593 53.4747C27.0166 54.3928 26.662 55.3362 26.3975 56.296C26.1752 57.1029 26.064 57.5064 26.1819 58.1731C26.3262 58.9887 27.1233 60.0239 27.8749 60.3716C28.4893 60.6558 29.0804 60.6494 30.2626 60.6367L48.2755 60.4427L66.2885 60.2487Z" fill="black"/>
<path d="M137.289 60.2487C138.471 60.236 139.062 60.2296 139.67 59.9322C140.415 59.5684 141.191 58.5163 141.319 57.6977C141.423 57.0287 141.304 56.6277 141.065 55.8257C140.781 54.8718 140.408 53.9362 139.946 53.0278C138.795 50.76 137.12 48.7062 135.018 46.9836C132.915 45.2611 130.426 43.9035 127.692 42.9884C124.959 42.0734 122.034 41.6188 119.086 41.6505C116.137 41.6823 113.222 42.1998 110.508 43.1735C107.793 44.1473 105.332 45.5581 103.265 47.3256C101.198 49.0931 99.5647 51.1825 98.4593 53.4747C98.0166 54.3928 97.662 55.3362 97.3975 56.296C97.1752 57.1029 97.064 57.5064 97.1819 58.1731C97.3262 58.9887 98.1234 60.0239 98.875 60.3716C99.4893 60.6558 100.08 60.6494 101.263 60.6367L119.276 60.4427L137.289 60.2487Z" fill="black"/>
<ellipse cx="35.2767" cy="84.5454" rx="8.27672" ry="8.54541" fill="black"/>
<ellipse cx="106.277" cy="84.5454" rx="8.27672" ry="8.54541" fill="black"/>
<path d="M77.2346 77.1926C77.2346 98.9337 62.7383 114 47.53 114C32.624 114 20 99.3073 20 77.1926C20 66.28 23.1702 56.592 28.229 49.7321C33.2693 42.8975 40.0458 39 47.53 39C62.5832 39 77.2346 55.2642 77.2346 77.1926Z" stroke="black" stroke-width="8"/>
<path d="M148.235 77.1924C148.235 98.9335 133.738 114 118.53 114C103.624 114 91 99.3071 91 77.1924C91 66.2798 94.1702 56.5918 99.229 49.7319C104.269 42.8973 111.046 38.9998 118.53 38.9998C133.583 38.9998 148.235 55.264 148.235 77.1924Z" stroke="black" stroke-width="8"/>
</svg>
