<svg width="183" height="56" viewBox="0 0 183 56" fill="none" xmlns="http://www.w3.org/2000/svg">
<path d="M6.25781 9.875H12.2109L20.9766 34.9297L29.7422 9.875H35.6953L23.3672 44H18.5859L6.25781 9.875ZM3.04688 9.875H8.97656L10.0547 34.2969V44H3.04688V9.875ZM32.9766 9.875H38.9297V44H31.8984V34.2969L32.9766 9.875ZM73.125 26.1406V27.7578C73.125 30.3516 72.7734 32.6797 72.0703 34.7422C71.3672 36.8047 70.375 38.5625 69.0938 40.0156C67.8125 41.4531 66.2812 42.5547 64.5 43.3203C62.7344 44.0859 60.7734 44.4688 58.6172 44.4688C56.4766 44.4688 54.5156 44.0859 52.7344 43.3203C50.9688 42.5547 49.4375 41.4531 48.1406 40.0156C46.8438 38.5625 45.8359 36.8047 45.1172 34.7422C44.4141 32.6797 44.0625 30.3516 44.0625 27.7578V26.1406C44.0625 23.5312 44.4141 21.2031 45.1172 19.1562C45.8203 17.0938 46.8125 15.3359 48.0938 13.8828C49.3906 12.4297 50.9219 11.3203 52.6875 10.5547C54.4688 9.78906 56.4297 9.40625 58.5703 9.40625C60.7266 9.40625 62.6875 9.78906 64.4531 10.5547C66.2344 11.3203 67.7656 12.4297 69.0469 13.8828C70.3438 15.3359 71.3438 17.0938 72.0469 19.1562C72.7656 21.2031 73.125 23.5312 73.125 26.1406ZM66.0234 27.7578V26.0938C66.0234 24.2812 65.8594 22.6875 65.5312 21.3125C65.2031 19.9375 64.7188 18.7812 64.0781 17.8438C63.4375 16.9062 62.6562 16.2031 61.7344 15.7344C60.8125 15.25 59.7578 15.0078 58.5703 15.0078C57.3828 15.0078 56.3281 15.25 55.4062 15.7344C54.5 16.2031 53.7266 16.9062 53.0859 17.8438C52.4609 18.7812 51.9844 19.9375 51.6562 21.3125C51.3281 22.6875 51.1641 24.2812 51.1641 26.0938V27.7578C51.1641 29.5547 51.3281 31.1484 51.6562 32.5391C51.9844 33.9141 52.4688 35.0781 53.1094 36.0312C53.75 36.9688 54.5312 37.6797 55.4531 38.1641C56.375 38.6484 57.4297 38.8906 58.6172 38.8906C59.8047 38.8906 60.8594 38.6484 61.7812 38.1641C62.7031 37.6797 63.4766 36.9688 64.1016 36.0312C64.7266 35.0781 65.2031 33.9141 65.5312 32.5391C65.8594 31.1484 66.0234 29.5547 66.0234 27.7578ZM106.219 26.1406V27.7578C106.219 30.3516 105.867 32.6797 105.164 34.7422C104.461 36.8047 103.469 38.5625 102.188 40.0156C100.906 41.4531 99.375 42.5547 97.5938 43.3203C95.8281 44.0859 93.8672 44.4688 91.7109 44.4688C89.5703 44.4688 87.6094 44.0859 85.8281 43.3203C84.0625 42.5547 82.5312 41.4531 81.2344 40.0156C79.9375 38.5625 78.9297 36.8047 78.2109 34.7422C77.5078 32.6797 77.1562 30.3516 77.1562 27.7578V26.1406C77.1562 23.5312 77.5078 21.2031 78.2109 19.1562C78.9141 17.0938 79.9062 15.3359 81.1875 13.8828C82.4844 12.4297 84.0156 11.3203 85.7812 10.5547C87.5625 9.78906 89.5234 9.40625 91.6641 9.40625C93.8203 9.40625 95.7812 9.78906 97.5469 10.5547C99.3281 11.3203 100.859 12.4297 102.141 13.8828C103.438 15.3359 104.438 17.0938 105.141 19.1562C105.859 21.2031 106.219 23.5312 106.219 26.1406ZM99.1172 27.7578V26.0938C99.1172 24.2812 98.9531 22.6875 98.625 21.3125C98.2969 19.9375 97.8125 18.7812 97.1719 17.8438C96.5312 16.9062 95.75 16.2031 94.8281 15.7344C93.9062 15.25 92.8516 15.0078 91.6641 15.0078C90.4766 15.0078 89.4219 15.25 88.5 15.7344C87.5938 16.2031 86.8203 16.9062 86.1797 17.8438C85.5547 18.7812 85.0781 19.9375 84.75 21.3125C84.4219 22.6875 84.2578 24.2812 84.2578 26.0938V27.7578C84.2578 29.5547 84.4219 31.1484 84.75 32.5391C85.0781 33.9141 85.5625 35.0781 86.2031 36.0312C86.8438 36.9688 87.625 37.6797 88.5469 38.1641C89.4688 38.6484 90.5234 38.8906 91.7109 38.8906C92.8984 38.8906 93.9531 38.6484 94.875 38.1641C95.7969 37.6797 96.5703 36.9688 97.1953 36.0312C97.8203 35.0781 98.2969 33.9141 98.625 32.5391C98.9531 31.1484 99.1172 29.5547 99.1172 27.7578ZM123.07 36.875L131.109 9.875H138.938L127.055 44H121.898L123.07 36.875ZM115.664 9.875L123.68 36.875L124.898 44H119.695L107.883 9.875H115.664ZM149.602 9.875V44H142.594V9.875H149.602ZM180.867 38.5156V44H156.68V38.5156H180.867ZM180.516 13.7891L159.797 44H154.852V39.9688L175.734 9.875H180.516V13.7891ZM178.102 9.875V15.3828H154.875V9.875H178.102Z" fill="black"/>
<circle cx="56" cy="29" r="4" fill="black"/>
<circle cx="89" cy="29" r="4" fill="black"/>
<path d="M65.1775 20.0825C65.1701 19.37 64.9919 18.6663 64.653 18.0116C64.3142 17.3569 63.8214 16.7639 63.2027 16.2665C62.5841 15.7691 61.8517 15.3771 61.0474 15.1128C60.2431 14.8486 59.3827 14.7172 58.5152 14.7263C57.6477 14.7353 56.7902 14.8846 55.9916 15.1656C55.193 15.4466 54.4689 15.8538 53.8608 16.364C53.2526 16.8741 52.7723 17.4773 52.4472 18.1389C52.1221 18.8006 51.9586 19.5078 51.966 20.2203L58.5718 20.1514L65.1775 20.0825Z" fill="black"/>
<path d="M98.3879 20.4253C98.3802 19.6851 98.1987 18.9539 97.8539 18.2736C97.509 17.5932 97.0076 16.9769 96.3781 16.46C95.7486 15.9431 95.0034 15.5356 94.1851 15.2609C93.3669 14.9861 92.4915 14.8494 91.609 14.8586C90.7265 14.8678 89.8541 15.0227 89.0417 15.3145C88.2294 15.6063 87.4929 16.0292 86.8743 16.5592C86.2557 17.0891 85.7672 17.7157 85.4366 18.4031C85.106 19.0905 84.9399 19.8253 84.9476 20.5655L91.6678 20.4954L98.3879 20.4253Z" fill="black"/>
</svg>
